<svg width="326" height="65" viewBox="0 0 326 65" fill="none" xmlns="http://www.w3.org/2000/svg">
<path d="M22.1082 40.363C21.2393 40.4862 20.3703 40.1231 19.9034 39.3773L17.9774 36.3165C17.3095 35.2594 17.6272 33.8587 18.6842 33.1973L38.7742 20.5324L39.922 19.8061L45.6676 16.1811C44.4549 12.9063 44.857 9.27475 46.6598 6.36307C47.1202 5.61731 47.0813 4.66404 46.5884 3.93774L44.5976 0.99363C43.8972 -0.0439421 42.49 -0.30982 41.4525 0.390541L21.784 13.6974L20.6556 14.4561L0.99363 27.776C-0.0439422 28.4763 -0.30982 29.8835 0.390541 30.9211L2.41381 33.9171C2.90665 34.6434 3.7821 34.9806 4.65107 34.8314C8.87269 34.1051 13.3148 35.8366 15.8698 39.6108C18.4248 43.3849 18.3794 48.1578 16.1357 51.8022C15.6753 52.5545 15.6558 53.4883 16.1487 54.2211L18.2303 57.3014C18.9307 58.3389 20.3379 58.6048 21.3754 57.9045L34.183 49.2407C34.4294 49.0721 34.5526 48.7673 34.4748 48.4755C34.1894 47.4574 33.755 46.4587 33.1648 45.512C30.733 41.6535 26.3493 39.7794 22.1082 40.3695V40.363Z" fill="url(#paint0_linear_912_151)"/>
<path d="M80.115 34.7926L78.1306 31.6475C77.6637 30.9017 76.7948 30.5451 75.9258 30.6618C71.6847 31.2519 67.301 29.3778 64.8692 25.5193C62.4374 21.6608 62.6384 16.901 64.9989 13.3278C65.4852 12.5951 65.5306 11.6548 65.0637 10.9155L63.1377 7.85465C62.4698 6.79763 61.0755 6.47987 60.0185 7.14781L45.6741 16.1877C45.9854 17.0242 46.3939 17.8348 46.9127 18.6065C49.4677 22.3807 53.9098 24.1121 58.1314 23.3858C59.0004 23.2367 59.8758 23.5674 60.3687 24.3002L62.4503 27.3805C63.1507 28.418 62.8783 29.8252 61.8472 30.5256L42.1788 43.8325L41.0504 44.5912L34.6045 48.9555C35.3113 51.9904 34.7212 55.1939 33.0027 57.7619C32.5229 58.4817 32.5423 59.422 33.0027 60.1548L34.9612 63.261C35.6291 64.318 37.0233 64.6358 38.0804 63.9678L58.1703 51.303L59.3182 50.5767L79.4081 37.9118C80.4652 37.2439 80.7829 35.8496 80.115 34.7926Z" fill="url(#paint1_linear_912_151)"/>
<path d="M42.1723 43.826L62.2104 30.2662C63.0405 29.702 63.2545 28.5801 62.6968 27.7501L60.226 24.0991C59.811 23.4896 59.0782 23.2042 58.3584 23.3404C54.0719 24.1705 49.5131 22.4455 46.9062 18.6C46.3874 17.8283 45.9789 17.0177 45.6676 16.1812L39.9221 19.8062L38.7742 20.5325L18.3016 33.4373C17.4521 33.969 17.1992 35.0909 17.7375 35.9404L20.0331 39.5784C20.4222 40.2009 21.155 40.5122 21.8813 40.3955C26.1937 39.7016 30.6941 41.5757 33.1714 45.5055C33.8587 46.595 34.3321 47.7623 34.6045 48.949L41.0504 44.5847L42.1788 43.826H42.1723Z" fill="url(#paint2_linear_912_151)"/>
<path d="M322.985 19.2939C322.985 18.9632 322.758 18.7038 322.291 18.7038H321.642V20.7076H321.902V19.8905H322.219L322.699 20.7076H323.011L322.505 19.8646C322.842 19.7868 322.985 19.5468 322.985 19.2874V19.2939ZM321.902 19.6765V18.9178H322.284C322.583 18.9178 322.712 19.0669 322.712 19.2939C322.712 19.5209 322.583 19.6765 322.284 19.6765H321.902Z" fill="white"/>
<path d="M322.33 17.1151C320.858 17.1151 319.658 18.3147 319.658 19.7868C319.658 21.2589 320.858 22.4585 322.33 22.4585C323.802 22.4585 325.001 21.2589 325.001 19.7868C325.001 18.3147 323.802 17.1151 322.33 17.1151ZM322.33 22.1343C321.033 22.1343 319.976 21.0773 319.976 19.7803C319.976 18.4833 321.033 17.4263 322.33 17.4263C323.627 17.4263 324.684 18.4833 324.684 19.7803C324.684 21.0773 323.627 22.1343 322.33 22.1343Z" fill="white"/>
<path d="M97.9936 31.8031L97.9028 25.2535L115.911 25.0005L116.002 31.5502L97.9936 31.8031ZM100.847 49.3446L100.97 24.7152C100.925 21.5052 101.813 19.1058 103.648 17.5106C105.477 15.9153 108.214 15.0917 111.852 15.0399L115.373 14.988L115.47 21.6349L111.748 21.6868C110.957 21.6998 110.347 21.9203 109.919 22.3547C109.498 22.7892 109.29 23.4053 109.303 24.1964L109.186 49.2214L100.853 49.3381L100.847 49.3446Z" fill="white"/>
<path d="M128.297 49.3381C125.729 49.3381 123.738 48.4951 122.331 46.8155C120.924 45.136 120.224 42.5615 120.224 39.0921V25.9798H127.681V39.2996C127.681 40.3113 127.979 41.1283 128.583 41.7574C129.186 42.3864 129.99 42.6977 131.001 42.6977C132.013 42.6977 132.83 42.3864 133.459 41.7574C134.088 41.1283 134.399 40.2853 134.399 39.2153V25.9798H141.857V48.5989H135.956V39.0921H136.364C136.364 41.4137 136.073 43.3332 135.482 44.8506C134.892 46.3681 134.03 47.4965 132.882 48.2292C131.734 48.9685 130.314 49.3381 128.621 49.3381H128.297Z" fill="white"/>
<path d="M145.138 24.0992V18.6908H155.138V24.0992H145.138ZM147.68 48.6053V18.6843H155.138V48.5988H147.68V48.6053Z" fill="white"/>
<path d="M158.413 24.0992V18.6908H168.412V24.0992H158.413ZM160.955 48.6053V18.6843H168.412V48.5988H160.955V48.6053Z" fill="white"/>
<path d="M171.363 31.3881V25.9798H187.757V31.3881H171.363ZM184.683 48.9296C182.225 48.9296 180.26 48.6313 178.801 48.0282C177.342 47.4251 176.279 46.4329 175.624 45.0387C174.969 43.6445 174.638 41.7574 174.638 39.3839L174.677 20.0786H181.564L181.525 39.585C181.525 40.5966 181.791 41.3683 182.322 41.9C182.854 42.4318 183.626 42.6977 184.637 42.6977H187.75V48.9296H184.676H184.683Z" fill="white"/>
<path d="M189.968 31.3882V25.9798H200.292V31.3882H189.968ZM195.908 24.177C194.54 24.177 193.535 23.8269 192.899 23.133C192.257 22.4391 191.933 21.5442 191.933 20.4483C191.933 19.3523 192.251 18.4639 192.899 17.7635C193.541 17.0697 194.533 16.7195 195.869 16.7195C197.205 16.7195 198.23 17.0697 198.859 17.7635C199.488 18.4574 199.799 19.3523 199.799 20.4483C199.799 21.5442 199.488 22.4326 198.859 23.133C198.23 23.8269 197.244 24.177 195.908 24.177ZM192.834 48.5989V25.9798H200.292V48.5989H192.834Z" fill="white"/>
<path d="M216.115 49.4224C214.15 49.4224 212.438 49.0982 210.992 48.4627C209.546 47.8272 208.333 46.9517 207.367 45.8623C206.394 44.7728 205.674 43.5277 205.194 42.1335C204.714 40.7392 204.474 39.2931 204.474 37.7886V36.9716C204.474 35.3893 204.727 33.8848 205.233 32.4646C205.739 31.0444 206.485 29.7864 207.464 28.6969C208.45 27.6075 209.662 26.745 211.108 26.116C212.555 25.4869 214.221 25.1757 216.108 25.1757C218.183 25.1757 220.012 25.5842 221.601 26.4078C223.183 27.2249 224.448 28.3532 225.395 29.7864C226.335 31.2195 226.86 32.8667 226.97 34.7213H219.675C219.591 33.8199 219.26 33.0547 218.67 32.4257C218.08 31.7967 217.23 31.4854 216.108 31.4854C215.155 31.4854 214.364 31.7318 213.754 32.2247C213.138 32.7175 212.684 33.3984 212.379 34.2739C212.081 35.1493 211.926 36.1869 211.926 37.3866C211.926 38.5085 212.055 39.5071 212.315 40.3761C212.574 41.2515 213.015 41.926 213.625 42.4058C214.241 42.8857 215.064 43.1257 216.102 43.1257C216.867 43.1257 217.509 42.9895 218.028 42.7171C218.547 42.4447 218.955 42.0557 219.26 41.5498C219.558 41.044 219.753 40.4474 219.831 39.7665H227.126C227.016 41.6795 226.477 43.3591 225.505 44.8052C224.532 46.2513 223.242 47.3862 221.633 48.2098C220.019 49.0268 218.177 49.4419 216.102 49.4419L216.115 49.4224Z" fill="white"/>
<path d="M230.907 48.6053V18.6843H238.364V48.5988H230.907V48.6053ZM246.97 48.6053L240.29 38.035H237.255L246.107 25.9862H253.895L245.491 37.3412V33.7356L255.283 48.6118H246.963L246.97 48.6053Z" fill="white"/>
<path d="M267.63 49.4224C265.717 49.4224 264.025 49.0917 262.546 48.4367C261.068 47.7818 259.829 46.8934 258.817 45.7715C257.806 44.6496 257.034 43.3916 256.502 42.0038C255.97 40.6096 255.705 39.1764 255.705 37.6979V36.8808C255.705 35.3504 255.97 33.8848 256.502 32.4776C257.034 31.0704 257.799 29.8188 258.798 28.7294C259.797 27.6399 261.016 26.7709 262.468 26.1289C263.914 25.4869 265.555 25.1692 267.384 25.1692C269.816 25.1692 271.878 25.7139 273.57 26.8099C275.263 27.9058 276.56 29.3454 277.461 31.1352C278.363 32.925 278.817 34.8705 278.817 36.9781V39.358H258.817V35.3439H274.511L271.93 37.1467C271.93 35.8627 271.761 34.7797 271.417 33.8913C271.074 33.0029 270.568 32.3284 269.9 31.8615C269.232 31.3946 268.389 31.1677 267.377 31.1677C266.366 31.1677 265.542 31.3946 264.816 31.8421C264.089 32.296 263.538 32.9769 263.156 33.8913C262.773 34.8056 262.585 35.9599 262.585 37.3542C262.585 38.6122 262.76 39.6952 263.117 40.6096C263.473 41.5239 264.018 42.2308 264.757 42.7171C265.497 43.21 266.45 43.4564 267.624 43.4564C268.661 43.4564 269.517 43.2813 270.185 42.9246C270.853 42.568 271.327 42.0946 271.599 41.4915H278.401C278.077 43.0219 277.422 44.3902 276.456 45.5899C275.483 46.7896 274.258 47.7364 272.766 48.4173C271.275 49.0982 269.563 49.4419 267.624 49.4419L267.63 49.4224Z" fill="white"/>
<path d="M280.211 31.3881V25.9798H296.604V31.3881H280.211ZM293.531 48.9296C291.073 48.9296 289.108 48.6313 287.649 48.0282C286.19 47.4251 285.126 46.4329 284.471 45.0387C283.816 43.6445 283.486 41.7574 283.486 39.3839L283.525 20.0786H290.411L290.373 39.585C290.373 40.5966 290.638 41.3683 291.17 41.9C291.702 42.4318 292.474 42.6977 293.485 42.6977H296.598V48.9296H293.524H293.531Z" fill="white"/>
<path d="M309.425 49.3381C306.144 49.3381 303.563 48.6637 301.682 47.3084C299.795 45.9531 298.783 44.053 298.647 41.5888H305.203C305.314 42.2697 305.735 42.8598 306.474 43.3526C307.214 43.8455 308.251 44.0919 309.587 44.0919C310.54 44.0919 311.37 43.9492 312.064 43.6639C312.758 43.3786 313.108 42.9052 313.108 42.2502C313.108 41.6796 312.836 41.2062 312.291 40.8365C311.746 40.4669 310.748 40.214 309.302 40.0778L307.745 39.9157C304.847 39.6174 302.72 38.8262 301.351 37.5358C299.983 36.2518 299.302 34.637 299.302 32.6981C299.302 31.0315 299.711 29.6567 300.534 28.5802C301.351 27.5037 302.486 26.6866 303.939 26.1419C305.385 25.5972 307.038 25.3248 308.9 25.3248C311.935 25.3248 314.379 25.9863 316.234 27.3157C318.089 28.6386 319.074 30.5451 319.185 33.0353H312.628C312.518 32.3544 312.149 31.7707 311.519 31.2909C310.89 30.811 309.989 30.5711 308.815 30.5711C307.966 30.5711 307.278 30.7202 306.747 31.0185C306.215 31.3168 305.949 31.7448 305.949 32.2895C305.949 32.8602 306.202 33.2882 306.708 33.5606C307.214 33.8329 308.024 34.0404 309.146 34.1766L310.702 34.3387C313.595 34.637 315.832 35.4412 317.401 36.7381C318.971 38.0351 319.755 39.7341 319.755 41.8417C319.755 43.398 319.34 44.7404 318.504 45.8558C317.667 46.9777 316.48 47.8337 314.937 48.4367C313.394 49.0398 311.558 49.3381 309.425 49.3381Z" fill="white"/>
<defs>
<linearGradient id="paint0_linear_912_151" x1="55.2262" y1="-57.8302" x2="-8.02029" y2="103.434" gradientUnits="userSpaceOnUse">
<stop offset="0.04" stop-color="#FFB400"/>
<stop offset="0.32" stop-color="#CE1BDC"/>
<stop offset="0.56" stop-color="#7D21CA"/>
<stop offset="0.97" stop-color="#1254FF"/>
</linearGradient>
<linearGradient id="paint1_linear_912_151" x1="3.88587" y1="19.9942" x2="190.954" y2="84.4793" gradientUnits="userSpaceOnUse">
<stop offset="0.04" stop-color="#FFB400"/>
<stop offset="0.41" stop-color="#CE1BDC"/>
<stop offset="0.55" stop-color="#7D21CA"/>
</linearGradient>
<linearGradient id="paint2_linear_912_151" x1="-14.2197" y1="22.2056" x2="116.78" y2="47.1851" gradientUnits="userSpaceOnUse">
<stop offset="0.04" stop-color="#FFB400"/>
<stop offset="0.32" stop-color="#CE1BDC"/>
<stop offset="0.56" stop-color="#7D21CA"/>
<stop offset="0.97" stop-color="#1254FF"/>
</linearGradient>
</defs>
</svg>
