<svg xmlns="http://www.w3.org/2000/svg" xmlns:xlink="http://www.w3.org/1999/xlink" width="512" zoomAndPan="magnify" viewBox="0 0 384 383.999986" height="512" preserveAspectRatio="xMidYMid meet" version="1.0"><path fill="#3444f1" d="M 148.746094 178.539062 L 36.1875 178.539062 C 35.210938 178.539062 34.238281 178.492188 33.265625 178.394531 C 32.292969 178.300781 31.332031 178.15625 30.375 177.96875 C 29.417969 177.777344 28.472656 177.539062 27.539062 177.257812 C 26.601562 176.972656 25.6875 176.644531 24.785156 176.273438 C 23.882812 175.898438 23 175.480469 22.140625 175.023438 C 21.28125 174.5625 20.445312 174.058594 19.632812 173.519531 C 18.820312 172.976562 18.039062 172.394531 17.285156 171.777344 C 16.53125 171.15625 15.808594 170.503906 15.117188 169.8125 C 14.429688 169.121094 13.773438 168.402344 13.15625 167.648438 C 12.535156 166.890625 11.953125 166.109375 11.414062 165.296875 C 10.871094 164.488281 10.371094 163.652344 9.910156 162.789062 C 9.449219 161.929688 9.03125 161.046875 8.660156 160.148438 C 8.285156 159.246094 7.957031 158.328125 7.675781 157.394531 C 7.390625 156.460938 7.152344 155.515625 6.964844 154.558594 C 6.773438 153.601562 6.628906 152.636719 6.535156 151.664062 C 6.4375 150.695312 6.390625 149.71875 6.390625 148.746094 L 6.390625 36.1875 C 6.390625 35.210938 6.4375 34.238281 6.535156 33.265625 C 6.628906 32.292969 6.773438 31.332031 6.964844 30.375 C 7.152344 29.417969 7.390625 28.472656 7.675781 27.539062 C 7.957031 26.601562 8.285156 25.6875 8.660156 24.785156 C 9.03125 23.882812 9.449219 23 9.910156 22.140625 C 10.371094 21.28125 10.871094 20.445312 11.414062 19.632812 C 11.953125 18.820312 12.535156 18.039062 13.15625 17.285156 C 13.773438 16.53125 14.429688 15.808594 15.117188 15.117188 C 15.808594 14.429688 16.53125 13.773438 17.285156 13.15625 C 18.039062 12.535156 18.820312 11.953125 19.632812 11.414062 C 20.445312 10.871094 21.28125 10.371094 22.140625 9.910156 C 23 9.449219 23.882812 9.03125 24.785156 8.660156 C 25.6875 8.285156 26.601562 7.957031 27.539062 7.675781 C 28.472656 7.390625 29.417969 7.152344 30.375 6.964844 C 31.332031 6.773438 32.292969 6.628906 33.265625 6.535156 C 34.238281 6.4375 35.210938 6.390625 36.1875 6.390625 L 148.746094 6.390625 C 149.71875 6.390625 150.695312 6.4375 151.664062 6.535156 C 152.636719 6.628906 153.601562 6.773438 154.558594 6.964844 C 155.515625 7.152344 156.460938 7.390625 157.394531 7.675781 C 158.328125 7.957031 159.246094 8.285156 160.148438 8.660156 C 161.046875 9.03125 161.929688 9.449219 162.789062 9.910156 C 163.652344 10.371094 164.488281 10.871094 165.296875 11.414062 C 166.109375 11.953125 166.890625 12.535156 167.648438 13.15625 C 168.402344 13.773438 169.121094 14.429688 169.8125 15.117188 C 170.503906 15.808594 171.15625 16.53125 171.777344 17.285156 C 172.394531 18.039062 172.976562 18.820312 173.519531 19.632812 C 174.0625 20.445312 174.5625 21.28125 175.023438 22.140625 C 175.480469 23 175.898438 23.882812 176.273438 24.785156 C 176.644531 25.6875 176.972656 26.601562 177.257812 27.539062 C 177.539062 28.472656 177.777344 29.417969 177.96875 30.375 C 178.15625 31.332031 178.300781 32.292969 178.394531 33.265625 C 178.492188 34.238281 178.539062 35.210938 178.539062 36.1875 L 178.539062 148.746094 C 178.539062 149.71875 178.492188 150.695312 178.394531 151.664062 C 178.300781 152.636719 178.15625 153.601562 177.96875 154.558594 C 177.777344 155.515625 177.539062 156.460938 177.257812 157.394531 C 176.972656 158.328125 176.644531 159.246094 176.273438 160.148438 C 175.898438 161.046875 175.480469 161.929688 175.023438 162.789062 C 174.5625 163.652344 174.058594 164.488281 173.519531 165.296875 C 172.976562 166.109375 172.394531 166.890625 171.777344 167.648438 C 171.15625 168.402344 170.503906 169.121094 169.8125 169.8125 C 169.121094 170.503906 168.402344 171.15625 167.648438 171.777344 C 166.890625 172.394531 166.109375 172.976562 165.296875 173.519531 C 164.488281 174.0625 163.652344 174.5625 162.789062 175.023438 C 161.929688 175.480469 161.046875 175.898438 160.148438 176.273438 C 159.246094 176.644531 158.328125 176.972656 157.394531 177.257812 C 156.460938 177.539062 155.515625 177.777344 154.558594 177.96875 C 153.601562 178.15625 152.636719 178.300781 151.664062 178.394531 C 150.695312 178.492188 149.71875 178.539062 148.746094 178.539062 Z M 347.378906 178.539062 L 234.820312 178.539062 C 233.84375 178.539062 232.871094 178.492188 231.898438 178.394531 C 230.925781 178.300781 229.964844 178.15625 229.007812 177.96875 C 228.050781 177.777344 227.105469 177.539062 226.171875 177.257812 C 225.234375 176.972656 224.320312 176.644531 223.417969 176.273438 C 222.515625 175.898438 221.632812 175.480469 220.773438 175.023438 C 219.914062 174.5625 219.078125 174.058594 218.265625 173.519531 C 217.453125 172.976562 216.671875 172.394531 215.917969 171.777344 C 215.164062 171.15625 214.441406 170.503906 213.75 169.8125 C 213.0625 169.121094 212.40625 168.402344 211.789062 167.648438 C 211.167969 166.890625 210.585938 166.109375 210.046875 165.296875 C 209.503906 164.488281 209.003906 163.652344 208.542969 162.789062 C 208.082031 161.929688 207.664062 161.046875 207.292969 160.148438 C 206.917969 159.246094 206.589844 158.328125 206.308594 157.394531 C 206.023438 156.460938 205.785156 155.515625 205.597656 154.558594 C 205.40625 153.601562 205.261719 152.636719 205.167969 151.664062 C 205.070312 150.695312 205.023438 149.71875 205.023438 148.746094 L 205.023438 36.1875 C 205.023438 35.210938 205.070312 34.238281 205.167969 33.265625 C 205.261719 32.292969 205.40625 31.332031 205.597656 30.375 C 205.785156 29.417969 206.023438 28.472656 206.308594 27.539062 C 206.589844 26.601562 206.917969 25.6875 207.292969 24.785156 C 207.664062 23.882812 208.082031 23 208.542969 22.140625 C 209.003906 21.28125 209.503906 20.445312 210.046875 19.632812 C 210.585938 18.820312 211.167969 18.039062 211.789062 17.285156 C 212.40625 16.53125 213.0625 15.808594 213.75 15.117188 C 214.441406 14.429688 215.164062 13.773438 215.917969 13.15625 C 216.671875 12.535156 217.453125 11.953125 218.265625 11.414062 C 219.078125 10.871094 219.914062 10.371094 220.773438 9.910156 C 221.632812 9.449219 222.515625 9.03125 223.417969 8.660156 C 224.320312 8.285156 225.234375 7.957031 226.171875 7.675781 C 227.105469 7.390625 228.050781 7.152344 229.007812 6.964844 C 229.964844 6.773438 230.925781 6.628906 231.898438 6.535156 C 232.871094 6.4375 233.84375 6.390625 234.820312 6.390625 L 347.378906 6.390625 C 348.351562 6.390625 349.328125 6.4375 350.296875 6.535156 C 351.269531 6.628906 352.234375 6.773438 353.191406 6.964844 C 354.148438 7.152344 355.09375 7.390625 356.027344 7.675781 C 356.960938 7.957031 357.878906 8.285156 358.78125 8.660156 C 359.679688 9.03125 360.5625 9.449219 361.421875 9.910156 C 362.285156 10.371094 363.121094 10.871094 363.929688 11.414062 C 364.742188 11.953125 365.523438 12.535156 366.28125 13.15625 C 367.035156 13.773438 367.753906 14.429688 368.445312 15.117188 C 369.136719 15.808594 369.789062 16.53125 370.410156 17.285156 C 371.027344 18.039062 371.609375 18.820312 372.152344 19.632812 C 372.691406 20.445312 373.195312 21.28125 373.65625 22.140625 C 374.113281 23 374.53125 23.882812 374.90625 24.785156 C 375.277344 25.6875 375.605469 26.601562 375.890625 27.539062 C 376.171875 28.472656 376.410156 29.417969 376.601562 30.375 C 376.789062 31.332031 376.933594 32.292969 377.027344 33.265625 C 377.125 34.238281 377.171875 35.210938 377.171875 36.1875 L 377.171875 148.746094 C 377.171875 149.71875 377.125 150.695312 377.027344 151.664062 C 376.933594 152.636719 376.789062 153.601562 376.601562 154.558594 C 376.410156 155.515625 376.171875 156.460938 375.890625 157.394531 C 375.605469 158.328125 375.277344 159.246094 374.90625 160.148438 C 374.53125 161.046875 374.113281 161.929688 373.65625 162.789062 C 373.195312 163.652344 372.691406 164.488281 372.152344 165.296875 C 371.609375 166.109375 371.027344 166.890625 370.410156 167.648438 C 369.789062 168.402344 369.136719 169.121094 368.445312 169.8125 C 367.753906 170.503906 367.035156 171.15625 366.28125 171.777344 C 365.523438 172.394531 364.742188 172.976562 363.929688 173.519531 C 363.121094 174.0625 362.285156 174.5625 361.421875 175.023438 C 360.5625 175.480469 359.679688 175.898438 358.78125 176.273438 C 357.878906 176.644531 356.960938 176.972656 356.027344 177.257812 C 355.09375 177.539062 354.148438 177.777344 353.191406 177.96875 C 352.234375 178.15625 351.269531 178.300781 350.296875 178.394531 C 349.328125 178.492188 348.351562 178.539062 347.378906 178.539062 Z M 148.746094 377.171875 L 36.1875 377.171875 C 35.210938 377.171875 34.238281 377.125 33.265625 377.027344 C 32.292969 376.933594 31.332031 376.789062 30.375 376.601562 C 29.417969 376.410156 28.472656 376.171875 27.539062 375.890625 C 26.601562 375.605469 25.6875 375.277344 24.785156 374.90625 C 23.882812 374.53125 23 374.113281 22.140625 373.65625 C 21.28125 373.195312 20.445312 372.691406 19.632812 372.152344 C 18.820312 371.609375 18.039062 371.027344 17.285156 370.410156 C 16.53125 369.789062 15.808594 369.136719 15.117188 368.445312 C 14.429688 367.753906 13.773438 367.035156 13.15625 366.28125 C 12.535156 365.523438 11.953125 364.742188 11.414062 363.929688 C 10.871094 363.121094 10.371094 362.285156 9.910156 361.421875 C 9.449219 360.5625 9.03125 359.679688 8.660156 358.78125 C 8.285156 357.878906 7.957031 356.960938 7.675781 356.027344 C 7.390625 355.09375 7.152344 354.148438 6.964844 353.191406 C 6.773438 352.234375 6.628906 351.269531 6.535156 350.296875 C 6.4375 349.328125 6.390625 348.351562 6.390625 347.378906 L 6.390625 234.820312 C 6.390625 233.84375 6.4375 232.871094 6.535156 231.898438 C 6.628906 230.925781 6.773438 229.964844 6.964844 229.007812 C 7.152344 228.050781 7.390625 227.105469 7.675781 226.171875 C 7.957031 225.234375 8.285156 224.320312 8.660156 223.417969 C 9.03125 222.515625 9.449219 221.632812 9.910156 220.773438 C 10.371094 219.914062 10.871094 219.078125 11.414062 218.265625 C 11.953125 217.453125 12.535156 216.671875 13.15625 215.917969 C 13.773438 215.164062 14.429688 214.441406 15.117188 213.75 C 15.808594 213.0625 16.53125 212.40625 17.285156 211.789062 C 18.039062 211.167969 18.820312 210.585938 19.632812 210.046875 C 20.445312 209.503906 21.28125 209.003906 22.140625 208.542969 C 23 208.082031 23.882812 207.664062 24.785156 207.292969 C 25.6875 206.917969 26.601562 206.589844 27.539062 206.308594 C 28.472656 206.023438 29.417969 205.785156 30.375 205.597656 C 31.332031 205.40625 32.292969 205.261719 33.265625 205.167969 C 34.238281 205.070312 35.210938 205.023438 36.1875 205.023438 L 148.746094 205.023438 C 149.71875 205.023438 150.695312 205.070312 151.664062 205.167969 C 152.636719 205.261719 153.601562 205.40625 154.558594 205.597656 C 155.515625 205.785156 156.460938 206.023438 157.394531 206.308594 C 158.328125 206.589844 159.246094 206.917969 160.148438 207.292969 C 161.046875 207.664062 161.929688 208.082031 162.789062 208.542969 C 163.652344 209.003906 164.488281 209.503906 165.296875 210.046875 C 166.109375 210.585938 166.890625 211.167969 167.648438 211.789062 C 168.402344 212.40625 169.121094 213.0625 169.8125 213.75 C 170.503906 214.441406 171.15625 215.164062 171.777344 215.917969 C 172.394531 216.671875 172.976562 217.453125 173.519531 218.265625 C 174.0625 219.078125 174.5625 219.914062 175.023438 220.773438 C 175.480469 221.632812 175.898438 222.515625 176.273438 223.417969 C 176.644531 224.320312 176.972656 225.234375 177.257812 226.171875 C 177.539062 227.105469 177.777344 228.050781 177.96875 229.007812 C 178.15625 229.964844 178.300781 230.925781 178.394531 231.898438 C 178.492188 232.871094 178.539062 233.84375 178.539062 234.820312 L 178.539062 347.378906 C 178.539062 348.351562 178.492188 349.328125 178.394531 350.296875 C 178.300781 351.269531 178.15625 352.234375 177.96875 353.191406 C 177.777344 354.148438 177.539062 355.09375 177.257812 356.027344 C 176.972656 356.960938 176.644531 357.878906 176.273438 358.78125 C 175.898438 359.679688 175.480469 360.5625 175.023438 361.421875 C 174.5625 362.285156 174.058594 363.121094 173.519531 363.929688 C 172.976562 364.742188 172.394531 365.523438 171.777344 366.28125 C 171.15625 367.035156 170.503906 367.753906 169.8125 368.445312 C 169.121094 369.136719 168.402344 369.789062 167.648438 370.410156 C 166.890625 371.027344 166.109375 371.609375 165.296875 372.152344 C 164.488281 372.691406 163.652344 373.195312 162.789062 373.65625 C 161.929688 374.113281 161.046875 374.53125 160.148438 374.90625 C 159.246094 375.277344 158.328125 375.605469 157.394531 375.890625 C 156.460938 376.171875 155.515625 376.410156 154.558594 376.601562 C 153.601562 376.789062 152.636719 376.933594 151.664062 377.027344 C 150.695312 377.125 149.71875 377.171875 148.746094 377.171875 Z M 347.378906 377.171875 L 234.820312 377.171875 C 233.84375 377.171875 232.871094 377.125 231.898438 377.027344 C 230.925781 376.933594 229.964844 376.789062 229.007812 376.601562 C 228.050781 376.410156 227.105469 376.171875 226.171875 375.890625 C 225.234375 375.605469 224.320312 375.277344 223.417969 374.90625 C 222.515625 374.53125 221.632812 374.113281 220.773438 373.65625 C 219.914062 373.195312 219.078125 372.691406 218.265625 372.152344 C 217.453125 371.609375 216.671875 371.027344 215.917969 370.410156 C 215.164062 369.789062 214.441406 369.136719 213.75 368.445312 C 213.0625 367.753906 212.40625 367.035156 211.789062 366.28125 C 211.167969 365.523438 210.585938 364.742188 210.046875 363.929688 C 209.503906 363.121094 209.003906 362.285156 208.542969 361.421875 C 208.082031 360.5625 207.664062 359.679688 207.292969 358.78125 C 206.917969 357.878906 206.589844 356.960938 206.308594 356.027344 C 206.023438 355.09375 205.785156 354.148438 205.597656 353.191406 C 205.40625 352.234375 205.261719 351.269531 205.167969 350.296875 C 205.070312 349.328125 205.023438 348.351562 205.023438 347.378906 L 205.023438 234.820312 C 205.023438 233.84375 205.070312 232.871094 205.167969 231.898438 C 205.261719 230.925781 205.40625 229.964844 205.597656 229.007812 C 205.785156 228.050781 206.023438 227.105469 206.308594 226.171875 C 206.589844 225.234375 206.917969 224.320312 207.292969 223.417969 C 207.664062 222.515625 208.082031 221.632812 208.542969 220.773438 C 209.003906 219.914062 209.503906 219.078125 210.046875 218.265625 C 210.585938 217.453125 211.167969 216.671875 211.789062 215.917969 C 212.40625 215.164062 213.0625 214.441406 213.75 213.75 C 214.441406 213.0625 215.164062 212.40625 215.917969 211.789062 C 216.671875 211.167969 217.453125 210.585938 218.265625 210.046875 C 219.078125 209.503906 219.914062 209.003906 220.773438 208.542969 C 221.632812 208.082031 222.515625 207.664062 223.417969 207.292969 C 224.320312 206.917969 225.234375 206.589844 226.171875 206.308594 C 227.105469 206.023438 228.050781 205.785156 229.007812 205.597656 C 229.964844 205.40625 230.925781 205.261719 231.898438 205.167969 C 232.871094 205.070312 233.84375 205.023438 234.820312 205.023438 L 347.378906 205.023438 C 348.351562 205.023438 349.328125 205.070312 350.296875 205.167969 C 351.269531 205.261719 352.234375 205.40625 353.191406 205.597656 C 354.148438 205.785156 355.09375 206.023438 356.027344 206.308594 C 356.960938 206.589844 357.878906 206.917969 358.78125 207.292969 C 359.679688 207.664062 360.5625 208.082031 361.421875 208.542969 C 362.285156 209.003906 363.121094 209.503906 363.929688 210.046875 C 364.742188 210.585938 365.523438 211.167969 366.28125 211.789062 C 367.035156 212.40625 367.753906 213.0625 368.445312 213.75 C 369.136719 214.441406 369.789062 215.164062 370.410156 215.917969 C 371.027344 216.671875 371.609375 217.453125 372.152344 218.265625 C 372.691406 219.078125 373.195312 219.914062 373.65625 220.773438 C 374.113281 221.632812 374.53125 222.515625 374.90625 223.417969 C 375.277344 224.320312 375.605469 225.234375 375.890625 226.171875 C 376.171875 227.105469 376.410156 228.050781 376.601562 229.007812 C 376.789062 229.964844 376.933594 230.925781 377.027344 231.898438 C 377.125 232.871094 377.171875 233.84375 377.171875 234.820312 L 377.171875 347.378906 C 377.171875 348.351562 377.125 349.328125 377.027344 350.296875 C 376.933594 351.269531 376.789062 352.234375 376.601562 353.191406 C 376.410156 354.148438 376.171875 355.09375 375.890625 356.027344 C 375.605469 356.960938 375.277344 357.878906 374.90625 358.78125 C 374.53125 359.679688 374.113281 360.5625 373.65625 361.421875 C 373.195312 362.285156 372.691406 363.121094 372.152344 363.929688 C 371.609375 364.742188 371.027344 365.523438 370.410156 366.28125 C 369.789062 367.035156 369.136719 367.753906 368.445312 368.445312 C 367.753906 369.136719 367.035156 369.789062 366.28125 370.410156 C 365.523438 371.027344 364.742188 371.609375 363.929688 372.152344 C 363.121094 372.691406 362.285156 373.195312 361.421875 373.65625 C 360.5625 374.113281 359.679688 374.53125 358.78125 374.90625 C 357.878906 375.277344 356.960938 375.605469 356.027344 375.890625 C 355.09375 376.171875 354.148438 376.410156 353.191406 376.601562 C 352.234375 376.789062 351.269531 376.933594 350.296875 377.027344 C 349.328125 377.125 348.351562 377.171875 347.378906 377.171875 Z M 347.378906 377.171875 " fill-opacity="1" fill-rule="nonzero"/></svg>